<?xml version="1.0" standalone="no"?><svg xmlns="http://www.w3.org/2000/svg" viewBox="0 0 1440 320"><path fill="#FA9884" fill-opacity="1" d="M0,224L30,186.7C60,149,120,75,180,58.7C240,43,300,85,360,138.7C420,192,480,256,540,234.7C600,213,660,107,720,64C780,21,840,43,900,69.3C960,96,1020,128,1080,160C1140,192,1200,224,1260,213.3C1320,203,1380,149,1410,122.7L1440,96L1440,320L1410,320C1380,320,1320,320,1260,320C1200,320,1140,320,1080,320C1020,320,960,320,900,320C840,320,780,320,720,320C660,320,600,320,540,320C480,320,420,320,360,320C300,320,240,320,180,320C120,320,60,320,30,320L0,320Z"></path></svg>